<svg xmlns="http://www.w3.org/2000/svg" viewBox="0 0 1280 1242" width="1280" height="1242" role="img" aria-labelledby="final-home-desktop-title final-home-desktop-desc" font-family="Helvetica, Arial, sans-serif">
  <title id="final-home-desktop-title">Final wireframe: public home page (desktop)</title>
  <desc id="final-home-desktop-desc">Implemented landing page: header, hero, Ask a stats question prompt, brand principles, event-to-statistic story, Explore gateway, API feature and footer policy links.</desc>
  <rect x="0" y="0" width="1280" height="1242" fill="#FFFFFF" stroke="#9AA4AD" stroke-width="2"/>
  <rect x="0" y="0" width="1280" height="64" fill="#14202B"/>
  <text x="32" y="40" font-size="20" font-weight="700" fill="#FFFFFF" text-anchor="start">Stat&#x27;sTheGame</text>
  <text x="220" y="39" font-size="14" font-weight="500" fill="#FFFFFF" text-anchor="start">Explore Data ▾</text>
  <text x="370.4" y="39" font-size="14" font-weight="500" fill="#FFFFFF" text-anchor="start">Downloads</text>
  <text x="474.2" y="39" font-size="14" font-weight="500" fill="#FFFFFF" text-anchor="start">API</text>
  <text x="1078" y="39" font-size="14" font-weight="600" fill="#FFFFFF" text-anchor="start">Sign in</text>
  <rect x="1176" y="18" width="72" height="28" rx="14" fill="#22313E" stroke="#4A5866" stroke-width="1.5"/>
  <text x="1212" y="37" font-size="12" font-weight="400" fill="#FFFFFF" text-anchor="middle">Theme</text>
  <rect x="32" y="88" width="1216" height="300" rx="10" fill="#F1F0EB" stroke="#9AA4AD" stroke-width="1.5"/>
  <text x="64" y="140" font-size="11" font-weight="700" fill="#5E7F00" text-anchor="start">PUBLIC T20 CRICKET RECORD</text>
  <text x="64" y="186" font-size="36" font-weight="700" fill="#14202B" text-anchor="start">The game, measured ball by ball.</text>
  <rect x="64" y="212" width="480" height="6" rx="3" fill="#D9DDE1"/>
  <rect x="64" y="226" width="298" height="6" rx="3" fill="#D9DDE1"/>
  <rect x="64" y="260" width="88" height="32" rx="6" fill="#5E7F00" stroke="#5E7F00" stroke-width="1.5"/>
  <text x="108.0" y="281" font-size="13" font-weight="600" fill="#FFFFFF" text-anchor="middle">Fixtures</text>
  <rect x="164" y="260" width="118" height="32" rx="6" fill="#FFFFFF" stroke="#9AA4AD" stroke-width="1.5"/>
  <text x="223.0" y="281" font-size="13" font-weight="600" fill="#14202B" text-anchor="middle">Competitions</text>
  <rect x="294" y="260" width="80" height="32" rx="6" fill="#FFFFFF" stroke="#9AA4AD" stroke-width="1.5"/>
  <text x="334.0" y="281" font-size="13" font-weight="600" fill="#14202B" text-anchor="middle">Players</text>
  <circle cx="52" cy="272" r="11" fill="#1F5FAD"/>
  <text x="52" y="276.5" font-size="12" font-weight="700" fill="#FFFFFF" text-anchor="middle">1</text>
  <rect x="700" y="112" width="520" height="252" rx="10" fill="#FFFFFF" stroke="#9AA4AD" stroke-width="1.5" stroke-dasharray="6 5"/>
  <text x="960" y="230" font-size="14" font-weight="400" fill="#5B6772" text-anchor="middle">Illustrative delivery (Three.js, SVG fallback)</text>
  <text x="960" y="252" font-size="12" font-weight="400" fill="#5B6772" text-anchor="middle">Reduced motion / no WebGL → static SVG</text>
  <circle cx="712" cy="124" r="11" fill="#1F5FAD"/>
  <text x="712" y="128.5" font-size="12" font-weight="700" fill="#FFFFFF" text-anchor="middle">2</text>
  <rect x="32" y="412" width="1216" height="120" rx="10" fill="#FFFFFF" stroke="#5E7F00" stroke-width="2"/>
  <text x="56" y="446" font-size="20" font-weight="700" fill="#14202B" text-anchor="start">Ask a stats question</text>
  <rect x="56" y="462" width="860" height="40" rx="6" fill="#FFFFFF" stroke="#9AA4AD" stroke-width="1.5"/>
  <text x="70" y="487" font-size="13" font-weight="400" fill="#5B6772" text-anchor="start">e.g. Who scored the most runs in the 2024 season?</text>
  <rect x="932" y="466" width="90" height="32" rx="6" fill="#5E7F00" stroke="#5E7F00" stroke-width="1.5"/>
  <text x="977.0" y="487" font-size="13" font-weight="600" fill="#FFFFFF" text-anchor="middle">Ask</text>
  <text x="1040" y="487" font-size="13" font-weight="400" fill="#5B6772" text-anchor="start">Example questions ▸</text>
  <circle cx="44" cy="424" r="11" fill="#1F5FAD"/>
  <text x="44" y="428.5" font-size="12" font-weight="700" fill="#FFFFFF" text-anchor="middle">3</text>
  <text x="48" y="572" font-size="22" font-weight="700" fill="#14202B" text-anchor="start">Explosive. Exact. Traceable.</text>
  <rect x="48" y="590" width="376" height="100" rx="6" fill="#FFFFFF" stroke="#9AA4AD" stroke-width="1.5"/>
  <text x="68" y="622" font-size="16" font-weight="700" fill="#14202B" text-anchor="start">Explosive</text>
  <rect x="68" y="640" width="300" height="6" rx="3" fill="#D9DDE1"/>
  <rect x="68" y="654" width="186" height="6" rx="3" fill="#D9DDE1"/>
  <rect x="448" y="590" width="376" height="100" rx="6" fill="#FFFFFF" stroke="#9AA4AD" stroke-width="1.5"/>
  <text x="468" y="622" font-size="16" font-weight="700" fill="#14202B" text-anchor="start">Exact</text>
  <rect x="468" y="640" width="300" height="6" rx="3" fill="#D9DDE1"/>
  <rect x="468" y="654" width="186" height="6" rx="3" fill="#D9DDE1"/>
  <rect x="848" y="590" width="376" height="100" rx="6" fill="#FFFFFF" stroke="#9AA4AD" stroke-width="1.5"/>
  <text x="868" y="622" font-size="16" font-weight="700" fill="#14202B" text-anchor="start">Traceable</text>
  <rect x="868" y="640" width="300" height="6" rx="3" fill="#D9DDE1"/>
  <rect x="868" y="654" width="186" height="6" rx="3" fill="#D9DDE1"/>
  <rect x="32" y="714" width="1216" height="120" rx="10" fill="#F1F0EB" stroke="#9AA4AD" stroke-width="1.5"/>
  <text x="56" y="748" font-size="18" font-weight="700" fill="#14202B" text-anchor="start">Delivery → derived statistic</text>
  <rect x="56" y="768" width="250" height="44" rx="6" fill="#FFFFFF" stroke="#9AA4AD" stroke-width="1.5"/>
  <text x="181" y="796" font-size="13" font-weight="400" fill="#14202B" text-anchor="middle">Delivery event</text>
  <text x="316" y="796" font-size="18" font-weight="400" fill="#5E7F00" text-anchor="middle">→</text>
  <rect x="346" y="768" width="250" height="44" rx="6" fill="#FFFFFF" stroke="#9AA4AD" stroke-width="1.5"/>
  <text x="471" y="796" font-size="13" font-weight="400" fill="#14202B" text-anchor="middle">runs.offBat / extras</text>
  <text x="606" y="796" font-size="18" font-weight="400" fill="#5E7F00" text-anchor="middle">→</text>
  <rect x="636" y="768" width="250" height="44" rx="6" fill="#FFFFFF" stroke="#9AA4AD" stroke-width="1.5"/>
  <text x="761" y="796" font-size="13" font-weight="400" fill="#14202B" text-anchor="middle">Team total</text>
  <text x="896" y="796" font-size="18" font-weight="400" fill="#5E7F00" text-anchor="middle">→</text>
  <rect x="926" y="768" width="250" height="44" rx="6" fill="#FFFFFF" stroke="#9AA4AD" stroke-width="1.5"/>
  <text x="1051" y="796" font-size="13" font-weight="400" fill="#14202B" text-anchor="middle">Player statistic</text>
  <text x="48" y="878" font-size="22" font-weight="700" fill="#14202B" text-anchor="start">Start with the cricket.</text>
  <rect x="48" y="896" width="280" height="70" rx="6" fill="#FFFFFF" stroke="#9AA4AD" stroke-width="1.5"/>
  <text x="68" y="936" font-size="16" font-weight="700" fill="#14202B" text-anchor="start">Fixtures</text>
  <text x="308" y="936" font-size="16" font-weight="400" fill="#5E7F00" text-anchor="end">→</text>
  <rect x="348" y="896" width="280" height="70" rx="6" fill="#FFFFFF" stroke="#9AA4AD" stroke-width="1.5"/>
  <text x="368" y="936" font-size="16" font-weight="700" fill="#14202B" text-anchor="start">Competitions</text>
  <text x="608" y="936" font-size="16" font-weight="400" fill="#5E7F00" text-anchor="end">→</text>
  <rect x="648" y="896" width="280" height="70" rx="6" fill="#FFFFFF" stroke="#9AA4AD" stroke-width="1.5"/>
  <text x="668" y="936" font-size="16" font-weight="700" fill="#14202B" text-anchor="start">Players</text>
  <text x="908" y="936" font-size="16" font-weight="400" fill="#5E7F00" text-anchor="end">→</text>
  <rect x="948" y="896" width="280" height="70" rx="6" fill="#FFFFFF" stroke="#9AA4AD" stroke-width="1.5"/>
  <text x="968" y="936" font-size="16" font-weight="700" fill="#14202B" text-anchor="start">Teams</text>
  <text x="1208" y="936" font-size="16" font-weight="400" fill="#5E7F00" text-anchor="end">→</text>
  <rect x="32" y="990" width="1216" height="64" rx="10" fill="#FFFFFF" stroke="#9AA4AD" stroke-width="1.5"/>
  <text x="56" y="1028" font-size="16" font-weight="700" fill="#14202B" text-anchor="start">The API is part of the product.</text>
  <text x="380" y="1028" font-size="13" font-weight="400" fill="#5B6772" text-anchor="start" font-family="Consolas, Menlo, monospace">GET /api/v1/fixtures   GET /api/v1/statistics/leaderboards   → API</text>
  <line x1="0" y1="1074" x2="1280" y2="1074" stroke="#9AA4AD"/>
  <text x="48" y="1104" font-size="13" font-weight="400" fill="#5B6772" text-anchor="start">API Explorer</text>
  <text x="168.8" y="1104" font-size="13" font-weight="400" fill="#5B6772" text-anchor="start">API Documentation</text>
  <text x="326.6" y="1104" font-size="13" font-weight="400" fill="#5B6772" text-anchor="start">Privacy Notice</text>
  <text x="462.20000000000005" y="1104" font-size="13" font-weight="400" fill="#5B6772" text-anchor="start">Terms of Use</text>
  <text x="583.0" y="1104" font-size="13" font-weight="400" fill="#5B6772" text-anchor="start">Accessibility</text>
  <rect x="24" y="1124" width="1232" height="94" rx="8" fill="#E7F0FB" stroke="#1F5FAD" stroke-width="1.5"/>
  <text x="40" y="1146" font-size="13" font-weight="700" fill="#1F5FAD" text-anchor="start">Annotations</text>
  <text x="40" y="1168" font-size="12" font-weight="400" fill="#14202B" text-anchor="start">1. Start exploring: Fixtures and Competitions first, Players at lower emphasis (#314).</text>
  <text x="40" y="1188" font-size="12" font-weight="400" fill="#14202B" text-anchor="start">2. Hero animation is illustrative only; the data model has no ball trajectory.</text>
  <text x="40" y="1208" font-size="12" font-weight="400" fill="#14202B" text-anchor="start">3. Natural-language question widget (#816, #851, #868) opens an answer dialog with scoped figures.</text>
</svg>
